<svg width="20" height="20" viewBox="0 0 20 20" fill="none" xmlns="http://www.w3.org/2000/svg">
<path d="M1.66663 15.8333C1.66663 17.25 2.74996 18.3333 4.16663 18.3333H15.8333C17.25 18.3333 18.3333 17.25 18.3333 15.8333V9.16663H1.66663V15.8333ZM15.8333 3.33329H14.1666V2.49996C14.1666 1.99996 13.8333 1.66663 13.3333 1.66663C12.8333 1.66663 12.5 1.99996 12.5 2.49996V3.33329H7.49996V2.49996C7.49996 1.99996 7.16663 1.66663 6.66663 1.66663C6.16663 1.66663 5.83329 1.99996 5.83329 2.49996V3.33329H4.16663C2.74996 3.33329 1.66663 4.41663 1.66663 5.83329V7.49996H18.3333V5.83329C18.3333 4.41663 17.25 3.33329 15.8333 3.33329Z" fill="#999999"/>
</svg>
